<svg version="1.1" id="Layer_1" xmlns="http://www.w3.org/2000/svg" xmlns:xlink="http://www.w3.org/1999/xlink" x="0px" y="0px"
	 width="100%" viewBox="0 0 500 500" enable-background="new 0 0 500 500" xml:space="preserve">
<path fill="#EDDEE1" opacity="1.000000" stroke="none" 
	d="
M314.000000,501.000000 
	C209.333359,501.000000 105.166718,501.000000 1.000056,501.000000 
	C1.000037,334.333405 1.000037,167.666794 1.000019,1.000145 
	C167.666565,1.000097 334.333130,1.000097 500.999756,1.000048 
	C500.999847,167.666519 500.999847,334.333038 500.999939,500.999786 
	C438.833344,501.000000 376.666656,501.000000 314.000000,501.000000 
M313.697845,327.055359 
	C315.413544,326.571136 317.597473,326.593506 318.764191,325.515228 
	C323.900757,320.768066 328.765259,315.724396 333.672211,310.732880 
	C334.491547,309.899414 335.033051,308.792786 335.702942,307.812408 
	C335.514740,307.311249 335.326538,306.810120 335.138336,306.308960 
	C323.427643,307.046539 311.718781,307.815704 300.004089,308.482666 
	C298.495972,308.568542 296.957642,308.124695 295.433319,307.926208 
	C295.535248,307.286621 295.637207,306.647064 295.739166,306.007477 
	C297.523407,306.007477 299.307648,306.007507 301.091888,306.007477 
	C330.424103,306.006989 359.756287,306.016876 389.088470,305.982727 
	C391.065613,305.980438 393.116425,305.923340 395.006805,305.418915 
	C404.550262,302.872559 409.470795,294.299316 407.963440,283.123810 
	C406.989807,275.905334 398.590393,269.100861 390.129669,269.059448 
	C369.464294,268.958313 348.798065,269.024384 328.132202,269.023132 
	C326.396027,269.023010 324.659821,269.023102 322.321777,269.023102 
	C330.274902,258.994110 337.610077,249.621964 345.110199,240.383682 
	C346.722443,238.397781 348.724640,236.555725 350.903717,235.236130 
	C356.718414,231.714935 362.827576,228.673767 368.576538,225.055435 
	C369.771423,224.303375 370.872559,221.481430 370.376465,220.305420 
	C368.509735,215.880112 366.139252,211.629120 363.542816,207.578674 
	C362.949646,206.653336 360.668793,206.387863 359.218811,206.502548 
	C350.136047,207.220917 341.023560,207.814484 332.011505,209.089645 
	C325.694092,209.983521 318.765717,210.577988 313.442474,213.629990 
	C302.849091,219.703522 293.073853,227.240997 283.159271,234.446991 
	C277.750793,238.377930 272.749054,242.868530 267.563904,247.106720 
	C267.717102,247.418457 267.870300,247.730179 268.023529,248.041901 
	C280.349487,246.278732 292.675446,244.515564 305.001434,242.752380 
	C305.270325,243.202515 305.539215,243.652649 305.808105,244.102768 
	C301.046783,249.726089 296.078674,255.189697 291.579987,261.015808 
	C286.687225,267.352356 280.729370,270.442352 272.656219,269.062805 
	C271.036591,268.786041 269.323029,268.922394 267.664703,269.038605 
	C264.774780,269.241150 263.917145,267.837158 263.959076,265.138885 
	C264.072998,257.807465 263.901520,250.470810 264.064850,243.141174 
	C264.207306,236.748276 265.018646,230.635986 272.484100,228.209808 
	C274.174805,227.660355 275.542511,226.185577 277.191254,225.422913 
	C279.957092,224.143555 280.391174,222.426987 278.905640,219.842407 
	C276.833740,216.237656 275.057251,212.457230 272.872253,208.926575 
	C272.130280,207.727646 270.465759,206.196075 269.338287,206.284760 
	C261.587646,206.894302 253.869843,207.913300 246.137222,208.761566 
	C238.190094,209.633331 230.238129,210.460815 221.686234,211.371826 
	C222.094543,205.668686 222.774796,199.575546 222.922760,193.469482 
	C223.390335,174.174103 223.842545,154.874222 223.874573,135.575363 
	C223.882584,130.757156 225.119278,127.898384 229.666946,126.003845 
	C233.312775,124.485001 236.535248,121.966759 239.993347,119.974937 
	C242.547485,118.503777 243.563065,116.803230 241.977234,113.869446 
	C239.363739,109.034492 237.260101,103.906731 234.407242,99.228210 
	C233.475693,97.700531 230.828461,96.262550 229.053284,96.360931 
	C217.477402,97.002434 205.925293,98.074318 194.366150,99.014801 
	C192.550735,99.162514 190.730240,99.293007 188.927246,99.541382 
	C174.996933,101.460396 163.127838,107.994087 152.135910,116.303711 
	C144.325180,122.208443 136.692276,128.352524 129.072586,134.504440 
	C123.929413,138.656891 118.947403,143.008957 113.893303,147.271713 
	C114.073380,147.558975 114.253456,147.846222 114.433533,148.133469 
	C132.731079,145.514816 151.028641,142.896164 169.752151,140.216553 
	C169.852524,142.300812 169.998627,143.925949 169.999146,145.551117 
	C170.011917,184.716293 169.925186,223.881866 170.115707,263.046112 
	C170.139450,267.922760 168.668716,269.188629 163.926956,269.127319 
	C144.597595,268.877350 125.263046,268.993591 105.930542,269.036041 
	C95.092606,269.059814 86.026764,277.392029 86.068947,287.388855 
	C86.110603,297.259430 93.732460,306.420135 105.644753,306.130798 
	C124.799377,305.665497 143.973572,306.006073 163.139511,306.006134 
	C164.909988,306.006134 166.680481,306.006104 168.891327,306.006104 
	C167.539566,316.219116 164.501938,324.728424 157.835922,331.841980 
	C156.560059,333.203491 155.471161,336.110657 156.062698,337.605713 
	C158.200409,343.008484 160.938705,348.199707 163.808502,353.267975 
	C164.507324,354.502106 166.594223,355.703674 168.007309,355.663696 
	C182.445053,355.254974 196.871429,354.440674 211.309311,354.041840 
	C221.017609,353.773682 221.019714,353.990723 221.010391,363.830048 
	C221.001648,373.069763 220.981659,383.055878 214.874557,389.991760 
	C208.713715,396.988831 210.164032,402.224091 214.271057,408.545380 
	C214.722229,409.239838 214.840622,410.294739 215.440979,410.720703 
	C217.160873,411.941010 218.955856,413.601532 220.889648,413.868256 
	C225.967728,414.568604 231.165665,415.121918 236.259628,414.811371 
	C243.469040,414.371918 251.219284,414.523682 257.661896,411.839172 
	C266.108490,408.319641 273.573914,402.383636 281.267883,397.199829 
	C282.206177,396.567657 282.619019,393.899139 282.120789,392.626221 
	C280.608459,388.762329 278.391907,385.180725 276.718323,381.371094 
	C275.550720,378.713287 274.119934,378.113403 271.285645,378.980042 
	C267.626190,380.098969 263.765411,380.559326 260.492401,381.204468 
	C261.033966,372.571655 261.474915,364.816559 262.063080,357.072662 
	C262.137665,356.090332 262.737305,354.696136 263.511108,354.292114 
	C268.456024,351.710266 274.733582,353.018646 278.421509,356.889893 
	C287.260193,366.167786 295.771240,375.817474 305.203918,384.455017 
	C317.368591,395.594330 330.707428,405.365814 346.024475,411.862091 
	C352.273102,414.512238 359.047058,416.410370 365.888702,413.795471 
	C377.967560,409.178925 387.466522,400.838470 396.380737,391.807892 
	C398.430481,389.731384 398.568115,387.242401 396.307770,384.689056 
	C393.673645,381.713440 391.586456,378.257629 389.007324,375.226868 
	C388.263275,374.352417 386.429535,373.551270 385.455811,373.858612 
	C375.864075,376.885681 367.031128,374.567474 358.524658,370.234039 
	C343.278961,362.467468 331.298981,350.697845 320.137939,338.067108 
	C317.263794,334.814453 315.339600,330.722412 313.000183,326.999054 
	C313.000183,326.999054 313.016602,326.978149 313.697845,327.055359 
z"/>
<path fill="#FDFDFD" opacity="1.000000" stroke="none" 
	d="
M312.979004,327.015961 
	C315.339600,330.722412 317.263794,334.814453 320.137939,338.067108 
	C331.298981,350.697845 343.278961,362.467468 358.524658,370.234039 
	C367.031128,374.567474 375.864075,376.885681 385.455811,373.858612 
	C386.429535,373.551270 388.263275,374.352417 389.007324,375.226868 
	C391.586456,378.257629 393.673645,381.713440 396.307770,384.689056 
	C398.568115,387.242401 398.430481,389.731384 396.380737,391.807892 
	C387.466522,400.838470 377.967560,409.178925 365.888702,413.795471 
	C359.047058,416.410370 352.273102,414.512238 346.024475,411.862091 
	C330.707428,405.365814 317.368591,395.594330 305.203918,384.455017 
	C295.771240,375.817474 287.260193,366.167786 278.421509,356.889893 
	C274.733582,353.018646 268.456024,351.710266 263.511108,354.292114 
	C262.737305,354.696136 262.137665,356.090332 262.063080,357.072662 
	C261.474915,364.816559 261.033966,372.571655 260.492401,381.204468 
	C263.765411,380.559326 267.626190,380.098969 271.285645,378.980042 
	C274.119934,378.113403 275.550720,378.713287 276.718323,381.371094 
	C278.391907,385.180725 280.608459,388.762329 282.120789,392.626221 
	C282.619019,393.899139 282.206177,396.567657 281.267883,397.199829 
	C273.573914,402.383636 266.108490,408.319641 257.661896,411.839172 
	C251.219284,414.523682 243.469040,414.371918 236.259628,414.811371 
	C231.165665,415.121918 225.967728,414.568604 220.889648,413.868256 
	C218.955856,413.601532 217.160873,411.941010 215.440979,410.720703 
	C214.840622,410.294739 214.722229,409.239838 214.271057,408.545380 
	C210.164032,402.224091 208.713715,396.988831 214.874557,389.991760 
	C220.981659,383.055878 221.001648,373.069763 221.010391,363.830048 
	C221.019714,353.990723 221.017609,353.773682 211.309311,354.041840 
	C196.871429,354.440674 182.445053,355.254974 168.007309,355.663696 
	C166.594223,355.703674 164.507324,354.502106 163.808502,353.267975 
	C160.938705,348.199707 158.200409,343.008484 156.062698,337.605713 
	C155.471161,336.110657 156.560059,333.203491 157.835922,331.841980 
	C164.501938,324.728424 167.539566,316.219116 168.891327,306.006104 
	C166.680481,306.006104 164.909988,306.006134 163.139511,306.006134 
	C143.973572,306.006073 124.799377,305.665497 105.644753,306.130798 
	C93.732460,306.420135 86.110603,297.259430 86.068947,287.388855 
	C86.026764,277.392029 95.092606,269.059814 105.930542,269.036041 
	C125.263046,268.993591 144.597595,268.877350 163.926956,269.127319 
	C168.668716,269.188629 170.139450,267.922760 170.115707,263.046112 
	C169.925186,223.881866 170.011917,184.716293 169.999146,145.551117 
	C169.998627,143.925949 169.852524,142.300812 169.752151,140.216553 
	C151.028641,142.896164 132.731079,145.514816 114.433533,148.133469 
	C114.253456,147.846222 114.073380,147.558975 113.893303,147.271713 
	C118.947403,143.008957 123.929413,138.656891 129.072586,134.504440 
	C136.692276,128.352524 144.325180,122.208443 152.135910,116.303711 
	C163.127838,107.994087 174.996933,101.460396 188.927246,99.541382 
	C190.730240,99.293007 192.550735,99.162514 194.366150,99.014801 
	C205.925293,98.074318 217.477402,97.002434 229.053284,96.360931 
	C230.828461,96.262550 233.475693,97.700531 234.407242,99.228210 
	C237.260101,103.906731 239.363739,109.034492 241.977234,113.869446 
	C243.563065,116.803230 242.547485,118.503777 239.993347,119.974937 
	C236.535248,121.966759 233.312775,124.485001 229.666946,126.003845 
	C225.119278,127.898384 223.882584,130.757156 223.874573,135.575363 
	C223.842545,154.874222 223.390335,174.174103 222.922760,193.469482 
	C222.774796,199.575546 222.094543,205.668686 221.686234,211.371826 
	C230.238129,210.460815 238.190094,209.633331 246.137222,208.761566 
	C253.869843,207.913300 261.587646,206.894302 269.338287,206.284760 
	C270.465759,206.196075 272.130280,207.727646 272.872253,208.926575 
	C275.057251,212.457230 276.833740,216.237656 278.905640,219.842407 
	C280.391174,222.426987 279.957092,224.143555 277.191254,225.422913 
	C275.542511,226.185577 274.174805,227.660355 272.484100,228.209808 
	C265.018646,230.635986 264.207306,236.748276 264.064850,243.141174 
	C263.901520,250.470810 264.072998,257.807465 263.959076,265.138885 
	C263.917145,267.837158 264.774780,269.241150 267.664703,269.038605 
	C269.323029,268.922394 271.036591,268.786041 272.656219,269.062805 
	C280.729370,270.442352 286.687225,267.352356 291.579987,261.015808 
	C296.078674,255.189697 301.046783,249.726089 305.808105,244.102768 
	C305.539215,243.652649 305.270325,243.202515 305.001434,242.752380 
	C292.675446,244.515564 280.349487,246.278732 268.023529,248.041901 
	C267.870300,247.730179 267.717102,247.418457 267.563904,247.106720 
	C272.749054,242.868530 277.750793,238.377930 283.159271,234.446991 
	C293.073853,227.240997 302.849091,219.703522 313.442474,213.629990 
	C318.765717,210.577988 325.694092,209.983521 332.011505,209.089645 
	C341.023560,207.814484 350.136047,207.220917 359.218811,206.502548 
	C360.668793,206.387863 362.949646,206.653336 363.542816,207.578674 
	C366.139252,211.629120 368.509735,215.880112 370.376465,220.305420 
	C370.872559,221.481430 369.771423,224.303375 368.576538,225.055435 
	C362.827576,228.673767 356.718414,231.714935 350.903717,235.236130 
	C348.724640,236.555725 346.722443,238.397781 345.110199,240.383682 
	C337.610077,249.621964 330.274902,258.994110 322.321777,269.023102 
	C324.659821,269.023102 326.396027,269.023010 328.132202,269.023132 
	C348.798065,269.024384 369.464294,268.958313 390.129669,269.059448 
	C398.590393,269.100861 406.989807,275.905334 407.963440,283.123810 
	C409.470795,294.299316 404.550262,302.872559 395.006805,305.418915 
	C393.116425,305.923340 391.065613,305.980438 389.088470,305.982727 
	C359.756287,306.016876 330.424103,306.006989 301.091888,306.007477 
	C299.307648,306.007507 297.523407,306.007477 295.739166,306.007477 
	C295.637207,306.647064 295.535248,307.286621 295.433319,307.926208 
	C296.957642,308.124695 298.495972,308.568542 300.004089,308.482666 
	C311.718781,307.815704 323.427643,307.046539 335.138336,306.308960 
	C335.326538,306.810120 335.514740,307.311249 335.702942,307.812408 
	C335.033051,308.792786 334.491547,309.899414 333.672211,310.732880 
	C328.765259,315.724396 323.900757,320.768066 318.764191,325.515228 
	C317.597473,326.593506 315.413544,326.571136 313.240723,326.803436 
	C312.578278,326.285339 312.314850,326.103149 311.986450,325.784119 
	C311.871674,325.311829 311.763794,325.060364 311.655884,324.808868 
	C311.541718,324.883514 311.427551,324.958160 311.313385,325.032837 
	C311.543762,325.353180 311.774109,325.673523 312.116455,326.208557 
	C312.418793,326.696594 312.668976,326.894165 312.979004,327.015961 
M344.135773,293.558044 
	C337.961060,293.462646 336.379089,289.429749 336.308014,283.966858 
	C333.814270,287.409973 334.087402,290.572571 336.784454,293.204895 
	C339.200409,295.562866 342.078857,296.460083 345.304840,293.792358 
	C345.442719,293.719604 345.580566,293.646820 345.718445,293.574066 
	C345.605591,293.467072 345.502899,293.290924 345.377075,293.272522 
	C345.250488,293.254028 345.100952,293.392487 344.135773,293.558044 
M349.003937,291.016479 
	C351.332214,287.824707 351.782776,284.181580 349.017700,281.476196 
	C347.144287,279.643219 343.931702,279.178986 341.318054,278.102570 
	C341.146912,278.563110 340.975800,279.023621 340.804688,279.484131 
	C347.754883,281.477081 348.783051,283.137329 347.399719,291.163666 
	C347.412994,291.418732 347.426239,291.673798 347.439514,291.928864 
	C347.771271,291.767609 348.102997,291.606354 349.003937,291.016479 
M238.213287,285.509857 
	C237.561447,279.133392 237.561447,279.133392 235.506790,279.204926 
	C235.506790,282.126953 235.515289,285.030212 235.505051,287.933441 
	C235.482147,294.427765 235.478348,294.427765 236.950439,294.664612 
	C237.625153,292.448212 238.275055,290.313263 239.170578,288.794983 
	C241.803848,291.343140 243.542267,295.592865 248.598770,294.425934 
	C245.098282,291.313324 242.015533,288.572144 238.213287,285.509857 
M266.736816,280.038025 
	C272.566498,281.649841 272.560974,286.123016 272.527039,291.019012 
	C273.521332,288.131622 274.615295,284.674957 273.374664,282.645172 
	C272.191132,280.708740 268.574615,280.259338 265.188721,279.040924 
	C263.444885,279.040924 261.701050,279.040924 260.158936,279.040924 
	C260.158936,284.597290 260.158936,289.657074 260.158936,294.788269 
	C262.424500,294.788269 264.372894,294.788269 265.759430,294.788269 
	C264.759521,293.537567 263.042969,292.339050 262.818970,290.907074 
	C262.391022,288.170685 262.539246,285.253113 263.022644,282.512024 
	C263.204987,281.478088 264.979095,280.724854 266.736816,280.038025 
M387.810425,383.730927 
	C377.417236,386.799530 367.010651,386.053040 357.832092,380.792999 
	C347.520691,374.883820 337.358551,368.278687 328.426849,360.490753 
	C311.430115,345.670441 297.728455,327.773926 284.569244,309.512207 
	C283.521179,308.057800 281.725922,306.303558 280.175751,306.198608 
	C274.374664,305.806030 268.524506,305.872101 262.705688,306.098511 
	C258.557983,306.259857 255.948074,311.236603 258.131989,314.451019 
	C273.241882,336.690552 290.258331,357.355377 310.082428,375.544006 
	C321.872681,386.361511 334.681946,395.872314 349.437134,402.513763 
	C356.381653,405.639587 363.103882,405.987396 369.191437,401.231689 
	C376.087891,395.844116 382.545593,389.894867 389.682037,383.964691 
	C389.667480,383.719574 389.652924,383.474426 389.638367,383.229340 
	C389.289001,383.350342 388.939606,383.471375 387.810425,383.730927 
M187.814194,112.130203 
	C175.866348,115.316856 165.150208,120.750526 155.202209,129.599899 
	C164.758896,128.516281 173.290436,127.548904 182.500992,126.504539 
	C182.500992,165.115753 182.500992,202.982681 182.500992,241.957535 
	C189.970581,235.913162 196.222031,230.146301 203.191498,225.443527 
	C208.569031,221.814941 209.954697,217.525894 210.035980,211.352371 
	C210.430679,181.373734 211.305069,151.401428 212.001892,121.753036 
	C219.174713,117.722321 225.996231,113.889023 232.817764,110.055717 
	C232.662247,109.790825 232.506744,109.525940 232.351227,109.261055 
	C217.786530,110.182922 203.221848,111.104797 187.814194,112.130203 
M219.930405,400.440948 
	C218.877548,401.622864 217.824692,402.804779 216.364563,404.443878 
	C222.545776,404.443878 228.099716,403.632080 233.327652,404.593262 
	C250.279404,407.709961 262.709503,399.566284 274.981598,389.074768 
	C269.230011,389.796295 264.012909,390.706146 258.759277,391.037628 
	C253.562515,391.365448 248.328918,391.109253 242.790863,391.109253 
	C251.365021,376.446869 251.951752,373.980103 252.026672,356.206482 
	C252.058960,348.549072 252.430878,340.893524 252.506317,333.235718 
	C252.594315,324.301239 252.526871,315.365204 252.526871,306.447723 
	C245.425430,306.447723 238.393539,306.447723 230.997009,306.447723 
	C230.997009,326.682159 231.254852,346.505615 230.901306,366.318115 
	C230.685699,378.402008 228.779404,390.232300 219.930405,400.440948 
M215.236557,232.200897 
	C220.333481,231.679947 225.430405,231.158997 231.237274,230.565475 
	C231.237274,243.657959 231.237274,256.347595 231.237274,269.143433 
	C239.020233,269.143433 246.125824,269.143433 253.496429,269.143433 
	C253.679626,267.670441 253.947632,266.387115 253.982635,265.097504 
	C254.293655,253.638107 254.669296,242.178574 254.777374,230.716751 
	C254.807632,227.507187 255.746872,225.713776 258.808197,224.324539 
	C263.372498,222.253281 267.616089,219.475311 272.963348,216.450974 
	C262.343750,217.187683 253.111023,218.343506 243.878189,218.344193 
	C231.018494,218.345154 220.935028,224.241150 209.930069,232.289185 
	C212.412613,232.289185 213.430634,232.289185 215.236557,232.200897 
M193.503128,306.029419 
	C189.554962,306.029419 185.606812,306.029419 181.460495,306.029419 
	C179.483353,320.306488 175.441330,333.164276 163.723663,342.806793 
	C183.613708,342.272644 202.459732,341.766541 221.177185,341.263885 
	C221.177185,335.374298 221.177185,330.132477 221.177185,324.100159 
	C213.667999,324.100159 206.501587,324.100159 199.700562,324.100159 
	C202.423752,317.938477 204.907227,312.319214 207.687057,306.029419 
	C202.454453,306.029419 198.472748,306.029419 193.503128,306.029419 
M313.027649,224.471069 
	C309.193268,226.979431 305.358917,229.487793 301.524536,231.996155 
	C301.655151,232.245834 301.785736,232.495529 301.916321,232.745209 
	C309.517853,231.968246 317.119385,231.191269 325.553589,230.329178 
	C318.681244,245.597565 308.045746,256.950653 297.352295,269.428772 
	C302.590759,269.121796 306.863464,270.684753 310.272644,266.431274 
	C319.829132,254.508087 329.554382,242.718475 339.348633,230.989380 
	C340.739685,229.323517 342.753815,228.041092 344.704529,227.004623 
	C351.046173,223.635132 357.492310,220.462204 363.898224,217.213608 
	C354.597687,217.079254 345.845673,218.270096 337.087921,218.313919 
	C328.682007,218.356033 320.963593,220.077377 313.027649,224.471069 
M182.451996,256.557129 
	C182.451996,260.670349 182.451996,264.783569 182.451996,268.989563 
	C191.528259,268.989563 200.036133,268.989563 208.768448,268.989563 
	C208.768448,260.122894 208.768448,251.693405 208.768448,243.057236 
	C202.551498,243.974747 196.634033,244.807388 190.730499,245.729095 
	C182.447098,247.022354 182.451523,247.050690 182.451996,256.557129 
M124.128441,290.294434 
	C124.310440,293.528229 121.770470,293.931183 119.820251,293.474579 
	C118.285492,293.115265 116.178261,291.366089 115.958923,289.976410 
	C115.405998,286.473083 115.775826,282.824066 115.775826,278.793182 
	C114.755424,279.165588 113.231598,279.462311 113.231209,279.760956 
	C113.225914,283.886322 113.090736,288.070343 113.785217,292.102600 
	C113.999382,293.346039 116.547852,294.887451 118.147743,295.041168 
	C121.134941,295.328217 124.210167,294.699219 126.852486,294.483704 
	C126.852486,289.987976 126.910271,285.425323 126.788361,280.867462 
	C126.770676,280.206085 125.892502,279.567688 125.412506,278.918671 
	C124.949951,279.572235 124.116859,280.210602 124.089386,280.881989 
	C123.974274,283.695465 124.100533,286.518890 124.128441,290.294434 
M392.325134,280.346313 
	C389.376068,279.585052 386.427002,278.823792 383.227081,277.997772 
	C383.227081,282.251282 383.285278,285.213806 383.215057,288.173309 
	C383.064148,294.534882 383.037079,294.534241 386.065491,294.520508 
	C386.065491,289.754761 386.065491,284.981567 386.065491,280.208374 
	C386.568695,279.977112 387.071899,279.745850 387.575104,279.514557 
	C389.034424,281.256012 390.493774,282.997437 392.509247,285.402527 
	C392.613129,283.612061 392.688812,282.308014 392.325134,280.346313 
M282.942413,278.839294 
	C281.694611,278.966248 280.446808,279.093201 279.328796,279.206940 
	C279.328796,284.695129 279.328796,289.778503 279.328796,294.751068 
	C281.686462,294.751068 283.791168,294.751068 285.895844,294.751068 
	C285.887421,294.597290 285.878998,294.443542 285.870544,294.289764 
	C284.492584,293.988037 283.114594,293.686279 282.001495,293.442535 
	C282.001495,291.293671 282.001495,289.487000 282.001495,287.582977 
	C283.514435,287.206451 284.860107,286.871552 286.205780,286.536652 
	C286.149017,286.334412 286.092285,286.132172 286.035522,285.929932 
	C284.766632,285.813690 283.497742,285.697449 282.312683,285.588867 
	C282.312683,283.671448 282.312683,281.969788 282.312683,280.312195 
	C284.297363,280.141998 285.846802,280.009125 287.396240,279.876251 
	C287.380829,279.594818 287.365387,279.313354 287.349976,279.031891 
	C286.151947,278.965820 284.953949,278.899750 282.942413,278.839294 
M139.993134,293.502350 
	C138.441055,293.367157 136.888977,293.231964 135.461197,293.107574 
	C135.461197,290.273346 135.461182,288.118805 135.461182,285.964264 
	C135.461182,283.654785 135.461197,281.345306 135.461197,279.043091 
	C132.965363,279.310394 132.192352,285.261322 133.567139,295.597473 
	C135.970886,294.956604 138.305191,294.334229 139.993134,293.502350 
M209.205292,290.539398 
	C210.076462,292.129761 210.947632,293.720123 211.818802,295.310486 
	C212.230759,295.053314 212.642715,294.796112 213.054672,294.538940 
	C211.412720,289.417328 209.770767,284.295715 208.004501,278.786316 
	C202.594696,283.664703 205.763687,286.735077 209.205292,290.539398 
M189.780457,283.701447 
	C189.788834,294.296570 189.788834,294.296570 191.990326,294.790283 
	C191.990326,289.954742 191.990326,285.220154 191.990326,280.477997 
	C194.128403,280.154846 195.795837,279.902832 197.463257,279.650818 
	C197.435852,279.531921 197.408447,279.413025 197.381027,279.294128 
	C193.177475,279.294128 188.973923,279.294128 185.245316,279.294128 
	C186.743851,280.453796 188.257172,281.624878 189.780457,283.701447 
M225.294586,293.415466 
	C218.491974,292.253357 218.946518,287.244019 219.967911,281.132690 
	C216.525345,285.744446 215.857254,289.372131 219.111557,292.935516 
	C221.662079,295.728271 225.269318,295.803680 228.595337,293.332794 
	C227.671860,293.381866 226.846802,293.425720 225.294586,293.415466 
M325.915741,288.436279 
	C326.054230,279.401672 326.054230,279.401672 323.588318,279.470062 
	C323.588318,284.522919 323.588318,289.571320 323.588318,294.686401 
	C325.782104,294.686401 328.096710,294.686401 330.411316,294.686401 
	C330.442505,294.484192 330.473663,294.281982 330.504822,294.079773 
	C329.012848,293.768158 327.520905,293.456543 325.903564,293.118713 
	C325.903564,291.697235 325.903564,290.543427 325.915741,288.436279 
M295.192352,283.132660 
	C294.305664,281.617737 293.418976,280.102844 292.532288,278.587921 
	C292.061646,278.869965 291.591003,279.151978 291.120392,279.434021 
	C293.079895,284.522003 295.039429,289.609955 296.998932,294.697937 
	C297.646362,294.479858 298.293793,294.261749 298.941223,294.043671 
	C297.791931,290.655273 296.642639,287.266907 295.192352,283.132660 
M357.761688,290.837128 
	C358.180664,279.877899 358.180664,279.877899 355.502808,279.233948 
	C355.502808,284.433044 355.502808,289.602509 355.502808,294.772003 
	C355.966675,294.884155 356.430542,294.996307 356.894409,295.108459 
	C357.164520,293.961517 357.434631,292.814575 357.761688,290.837128 
M104.492508,278.912598 
	C103.123283,279.022217 101.754066,279.131836 100.799850,279.208252 
	C100.799850,282.702209 100.740517,285.675079 100.812363,288.644806 
	C100.955818,294.574188 100.985535,294.573456 103.250641,294.466705 
	C103.250641,289.750183 103.250641,285.047485 103.250641,280.362122 
	C105.119804,280.099335 106.718468,279.874603 108.317131,279.649872 
	C108.290237,279.401398 108.263336,279.152893 108.236435,278.904419 
	C107.269920,278.904419 106.303413,278.904419 104.492508,278.912598 
M372.845612,285.630127 
	C372.651917,283.912506 372.458221,282.194855 372.243805,280.293671 
	C374.375153,280.077484 375.953186,279.917419 377.531219,279.757355 
	C377.518524,279.567596 377.505798,279.377869 377.493103,279.188141 
	C375.142395,279.188141 372.791687,279.188141 370.629517,279.188141 
	C370.629517,283.927551 370.629517,288.429413 370.629517,292.931274 
	C371.004791,292.939362 371.380096,292.947449 371.755371,292.955505 
	C372.045532,291.078857 372.335693,289.202179 372.630157,287.297516 
	C373.991058,287.070160 375.237579,286.861877 376.484100,286.653625 
	C376.480499,286.487000 376.476898,286.320374 376.473297,286.153748 
	C375.514343,286.067413 374.555359,285.981110 372.845612,285.630127 
M311.362640,292.892059 
	C311.833282,291.041809 312.303925,289.191559 312.793671,287.266205 
	C313.996490,287.067963 315.239380,286.863129 317.182983,286.542816 
	C315.103760,286.041046 313.743164,285.712677 312.207520,285.342102 
	C312.331299,283.442047 312.435059,281.849487 312.534088,280.329651 
	C314.489532,280.055634 316.041901,279.838104 317.594269,279.620575 
	C317.574097,279.494507 317.553925,279.368439 317.533722,279.242371 
	C315.130371,279.242371 312.727020,279.242371 309.798553,279.242371 
	C310.031219,283.967468 310.248871,288.387512 311.362640,292.892059 
M146.032867,289.254639 
	C145.934677,291.112000 145.836487,292.969360 145.745987,294.681091 
	C148.189285,294.681091 150.354553,294.681091 152.519836,294.681091 
	C152.527100,294.514740 152.534363,294.348389 152.541626,294.182007 
	C151.044632,293.835724 149.547638,293.489410 148.134598,293.162537 
	C147.785294,279.421997 147.785294,279.421997 146.033325,279.502228 
	C146.033325,282.463318 146.033325,285.404877 146.032867,289.254639 
M175.451340,285.041779 
	C174.741745,284.078522 174.032135,283.115265 173.322540,282.152008 
	C172.843307,282.449860 172.364075,282.747742 171.884842,283.045593 
	C172.970642,284.544464 173.910004,286.183990 175.179947,287.505981 
	C176.711990,289.100830 178.524490,290.426270 180.192230,291.848358 
	C182.134125,288.841766 182.134125,288.841766 175.451340,285.041779 
M390.507904,287.933258 
	C389.583282,287.567993 388.658691,287.202759 386.922546,286.516937 
	C392.079254,293.850464 393.280487,294.759857 396.316101,294.057129 
	C394.556976,292.194885 392.782349,290.316193 390.507904,287.933258 
z"/>
<path fill="#585858" opacity="1.000000" stroke="none" 
	d="
M188.235672,112.078438 
	C203.221848,111.104797 217.786530,110.182922 232.351227,109.261055 
	C232.506744,109.525940 232.662247,109.790825 232.817764,110.055717 
	C225.996231,113.889023 219.174713,117.722321 212.001892,121.753036 
	C211.305069,151.401428 210.430679,181.373734 210.035980,211.352371 
	C209.954697,217.525894 208.569031,221.814941 203.191498,225.443527 
	C196.222031,230.146301 189.970581,235.913162 182.500992,241.957535 
	C182.500992,202.982681 182.500992,165.115753 182.500992,126.504539 
	C173.290436,127.548904 164.758896,128.516281 155.202209,129.599899 
	C165.150208,120.750526 175.866348,115.316856 188.235672,112.078438 
z"/>
<path fill="#565656" opacity="1.000000" stroke="none" 
	d="
M389.194092,384.189819 
	C382.545593,389.894867 376.087891,395.844116 369.191437,401.231689 
	C363.103882,405.987396 356.381653,405.639587 349.437134,402.513763 
	C334.681946,395.872314 321.872681,386.361511 310.082428,375.544006 
	C290.258331,357.355377 273.241882,336.690552 258.131989,314.451019 
	C255.948074,311.236603 258.557983,306.259857 262.705688,306.098511 
	C268.524506,305.872101 274.374664,305.806030 280.175751,306.198608 
	C281.725922,306.303558 283.521179,308.057800 284.569244,309.512207 
	C297.728455,327.773926 311.430115,345.670441 328.426849,360.490753 
	C337.358551,368.278687 347.520691,374.883820 357.832092,380.792999 
	C367.010651,386.053040 377.417236,386.799530 388.350677,383.811646 
	C388.890930,383.892365 389.194061,384.189819 389.194092,384.189819 
z"/>
<path fill="#575757" opacity="1.000000" stroke="none" 
	d="
M220.159943,400.164307 
	C228.779404,390.232300 230.685699,378.402008 230.901306,366.318115 
	C231.254852,346.505615 230.997009,326.682159 230.997009,306.447723 
	C238.393539,306.447723 245.425430,306.447723 252.526871,306.447723 
	C252.526871,315.365204 252.594315,324.301239 252.506317,333.235718 
	C252.430878,340.893524 252.058960,348.549072 252.026672,356.206482 
	C251.951752,373.980103 251.365021,376.446869 242.790863,391.109253 
	C248.328918,391.109253 253.562515,391.365448 258.759277,391.037628 
	C264.012909,390.706146 269.230011,389.796295 274.981598,389.074768 
	C262.709503,399.566284 250.279404,407.709961 233.327652,404.593262 
	C228.099716,403.632080 222.545776,404.443878 216.364563,404.443878 
	C217.824692,402.804779 218.877548,401.622864 220.159943,400.164307 
z"/>
<path fill="#575757" opacity="1.000000" stroke="none" 
	d="
M214.842590,232.245041 
	C213.430634,232.289185 212.412613,232.289185 209.930069,232.289185 
	C220.935028,224.241150 231.018494,218.345154 243.878189,218.344193 
	C253.111023,218.343506 262.343750,217.187683 272.963348,216.450974 
	C267.616089,219.475311 263.372498,222.253281 258.808197,224.324539 
	C255.746872,225.713776 254.807632,227.507187 254.777374,230.716751 
	C254.669296,242.178574 254.293655,253.638107 253.982635,265.097504 
	C253.947632,266.387115 253.679626,267.670441 253.496429,269.143433 
	C246.125824,269.143433 239.020233,269.143433 231.237274,269.143433 
	C231.237274,256.347595 231.237274,243.657959 231.237274,230.565475 
	C225.430405,231.158997 220.333481,231.679947 214.842590,232.245041 
z"/>
<path fill="#585858" opacity="1.000000" stroke="none" 
	d="
M193.997101,306.029419 
	C198.472748,306.029419 202.454453,306.029419 207.687057,306.029419 
	C204.907227,312.319214 202.423752,317.938477 199.700562,324.100159 
	C206.501587,324.100159 213.667999,324.100159 221.177185,324.100159 
	C221.177185,330.132477 221.177185,335.374298 221.177185,341.263885 
	C202.459732,341.766541 183.613708,342.272644 163.723663,342.806793 
	C175.441330,333.164276 179.483353,320.306488 181.460495,306.029419 
	C185.606812,306.029419 189.554962,306.029419 193.997101,306.029419 
z"/>
<path fill="#595959" opacity="1.000000" stroke="none" 
	d="
M313.354828,224.294098 
	C320.963593,220.077377 328.682007,218.356033 337.087921,218.313919 
	C345.845673,218.270096 354.597687,217.079254 363.898224,217.213608 
	C357.492310,220.462204 351.046173,223.635132 344.704529,227.004623 
	C342.753815,228.041092 340.739685,229.323517 339.348633,230.989380 
	C329.554382,242.718475 319.829132,254.508087 310.272644,266.431274 
	C306.863464,270.684753 302.590759,269.121796 297.352295,269.428772 
	C308.045746,256.950653 318.681244,245.597565 325.553589,230.329178 
	C317.119385,231.191269 309.517853,231.968246 301.916321,232.745209 
	C301.785736,232.495529 301.655151,232.245834 301.524536,231.996155 
	C305.358917,229.487793 309.193268,226.979431 313.354828,224.294098 
z"/>
<path fill="#595959" opacity="1.000000" stroke="none" 
	d="
M182.452118,256.075623 
	C182.451523,247.050690 182.447098,247.022354 190.730499,245.729095 
	C196.634033,244.807388 202.551498,243.974747 208.768448,243.057236 
	C208.768448,251.693405 208.768448,260.122894 208.768448,268.989563 
	C200.036133,268.989563 191.528259,268.989563 182.451996,268.989563 
	C182.451996,264.783569 182.451996,260.670349 182.452118,256.075623 
z"/>
<path fill="#808080" opacity="1.000000" stroke="none" 
	d="
M124.133408,289.816528 
	C124.100533,286.518890 123.974274,283.695465 124.089386,280.881989 
	C124.116859,280.210602 124.949951,279.572235 125.412506,278.918671 
	C125.892502,279.567688 126.770676,280.206085 126.788361,280.867462 
	C126.910271,285.425323 126.852486,289.987976 126.852486,294.483704 
	C124.210167,294.699219 121.134941,295.328217 118.147743,295.041168 
	C116.547852,294.887451 113.999382,293.346039 113.785217,292.102600 
	C113.090736,288.070343 113.225914,283.886322 113.231209,279.760956 
	C113.231598,279.462311 114.755424,279.165588 115.775826,278.793182 
	C115.775826,282.824066 115.405998,286.473083 115.958923,289.976410 
	C116.178261,291.366089 118.285492,293.115265 119.820251,293.474579 
	C121.770470,293.931183 124.310440,293.528229 124.133408,289.816528 
z"/>
<path fill="#7D7D7D" opacity="1.000000" stroke="none" 
	d="
M392.544800,280.675171 
	C392.688812,282.308014 392.613129,283.612061 392.509247,285.402527 
	C390.493774,282.997437 389.034424,281.256012 387.575104,279.514557 
	C387.071899,279.745850 386.568695,279.977112 386.065491,280.208374 
	C386.065491,284.981567 386.065491,289.754761 386.065491,294.520508 
	C383.037079,294.534241 383.064148,294.534882 383.215057,288.173309 
	C383.285278,285.213806 383.227081,282.251282 383.227081,277.997772 
	C386.427002,278.823792 389.376068,279.585052 392.544800,280.675171 
z"/>
<path fill="#7D7D7D" opacity="1.000000" stroke="none" 
	d="
M283.349182,278.836487 
	C284.953949,278.899750 286.151947,278.965820 287.349976,279.031891 
	C287.365387,279.313354 287.380829,279.594818 287.396240,279.876251 
	C285.846802,280.009125 284.297363,280.141998 282.312683,280.312195 
	C282.312683,281.969788 282.312683,283.671448 282.312683,285.588867 
	C283.497742,285.697449 284.766632,285.813690 286.035522,285.929932 
	C286.092285,286.132172 286.149017,286.334412 286.205780,286.536652 
	C284.860107,286.871552 283.514435,287.206451 282.001495,287.582977 
	C282.001495,289.487000 282.001495,291.293671 282.001495,293.442535 
	C283.114594,293.686279 284.492584,293.988037 285.870544,294.289764 
	C285.878998,294.443542 285.887421,294.597290 285.895844,294.751068 
	C283.791168,294.751068 281.686462,294.751068 279.328796,294.751068 
	C279.328796,289.778503 279.328796,284.695129 279.328796,279.206940 
	C280.446808,279.093201 281.694611,278.966248 283.349182,278.836487 
z"/>
<path fill="#777777" opacity="1.000000" stroke="none" 
	d="
M140.316315,293.607086 
	C138.305191,294.334229 135.970886,294.956604 133.567139,295.597473 
	C132.192352,285.261322 132.965363,279.310394 135.461197,279.043091 
	C135.461197,281.345306 135.461182,283.654785 135.461182,285.964264 
	C135.461182,288.118805 135.461197,290.273346 135.461197,293.107574 
	C136.888977,293.231964 138.441055,293.367157 140.316315,293.607086 
z"/>
<path fill="#808080" opacity="1.000000" stroke="none" 
	d="
M266.027588,279.843658 
	C264.979095,280.724854 263.204987,281.478088 263.022644,282.512024 
	C262.539246,285.253113 262.391022,288.170685 262.818970,290.907074 
	C263.042969,292.339050 264.759521,293.537567 265.759430,294.788269 
	C264.372894,294.788269 262.424500,294.788269 260.158936,294.788269 
	C260.158936,289.657074 260.158936,284.597290 260.158936,279.040924 
	C261.701050,279.040924 263.444885,279.040924 265.603638,279.270447 
	C266.018524,279.499939 266.027588,279.843658 266.027588,279.843658 
z"/>
<path fill="#6A6A6A" opacity="1.000000" stroke="none" 
	d="
M209.086807,290.169800 
	C205.763687,286.735077 202.594696,283.664703 208.004501,278.786316 
	C209.770767,284.295715 211.412720,289.417328 213.054672,294.538940 
	C212.642715,294.796112 212.230759,295.053314 211.818802,295.310486 
	C210.947632,293.720123 210.076462,292.129761 209.086807,290.169800 
z"/>
<path fill="#656565" opacity="1.000000" stroke="none" 
	d="
M189.775482,283.248718 
	C188.257172,281.624878 186.743851,280.453796 185.245316,279.294128 
	C188.973923,279.294128 193.177475,279.294128 197.381027,279.294128 
	C197.408447,279.413025 197.435852,279.531921 197.463257,279.650818 
	C195.795837,279.902832 194.128403,280.154846 191.990326,280.477997 
	C191.990326,285.220154 191.990326,289.954742 191.990326,294.790283 
	C189.788834,294.296570 189.788834,294.296570 189.775482,283.248718 
z"/>
<path fill="#777777" opacity="1.000000" stroke="none" 
	d="
M238.924957,288.178345 
	C238.275055,290.313263 237.625153,292.448212 236.950439,294.664612 
	C235.478348,294.427765 235.482147,294.427765 235.505051,287.933441 
	C235.515289,285.030212 235.506790,282.126953 235.506790,279.204926 
	C237.561447,279.133392 237.561447,279.133392 238.579025,286.061707 
	C238.938171,287.135132 238.931564,287.656738 238.924957,288.178345 
z"/>
<path fill="#6F6F6F" opacity="1.000000" stroke="none" 
	d="
M225.658173,293.442505 
	C226.846802,293.425720 227.671860,293.381866 228.595337,293.332794 
	C225.269318,295.803680 221.662079,295.728271 219.111557,292.935516 
	C215.857254,289.372131 216.525345,285.744446 219.967911,281.132690 
	C218.946518,287.244019 218.491974,292.253357 225.658173,293.442505 
z"/>
<path fill="#656565" opacity="1.000000" stroke="none" 
	d="
M325.909668,288.912964 
	C325.903564,290.543427 325.903564,291.697235 325.903564,293.118713 
	C327.520905,293.456543 329.012848,293.768158 330.504822,294.079773 
	C330.473663,294.281982 330.442505,294.484192 330.411316,294.686401 
	C328.096710,294.686401 325.782104,294.686401 323.588318,294.686401 
	C323.588318,289.571320 323.588318,284.522919 323.588318,279.470062 
	C326.054230,279.401672 326.054230,279.401672 325.909668,288.912964 
z"/>
<path fill="#777777" opacity="1.000000" stroke="none" 
	d="
M347.855835,290.870239 
	C348.783051,283.137329 347.754883,281.477081 340.804688,279.484131 
	C340.975800,279.023621 341.146912,278.563110 341.318054,278.102570 
	C343.931702,279.178986 347.144287,279.643219 349.017700,281.476196 
	C351.782776,284.181580 351.332214,287.824707 348.576416,291.085266 
	C348.148865,291.154053 347.855835,290.870239 347.855835,290.870239 
z"/>
<path fill="#6A6A6A" opacity="1.000000" stroke="none" 
	d="
M295.342834,283.505615 
	C296.642639,287.266907 297.791931,290.655273 298.941223,294.043671 
	C298.293793,294.261749 297.646362,294.479858 296.998932,294.697937 
	C295.039429,289.609955 293.079895,284.522003 291.120392,279.434021 
	C291.591003,279.151978 292.061646,278.869965 292.532288,278.587921 
	C293.418976,280.102844 294.305664,281.617737 295.342834,283.505615 
z"/>
<path fill="#6F6F6F" opacity="1.000000" stroke="none" 
	d="
M344.906555,293.536987 
	C342.078857,296.460083 339.200409,295.562866 336.784454,293.204895 
	C334.087402,290.572571 333.814270,287.409973 336.308014,283.966858 
	C336.379089,289.429749 337.961060,293.462646 344.532349,293.526947 
	C344.928925,293.495850 344.906555,293.536987 344.906555,293.536987 
z"/>
<path fill="#6A6A6A" opacity="1.000000" stroke="none" 
	d="
M357.733215,291.252380 
	C357.434631,292.814575 357.164520,293.961517 356.894409,295.108459 
	C356.430542,294.996307 355.966675,294.884155 355.502808,294.772003 
	C355.502808,289.602509 355.502808,284.433044 355.502808,279.233948 
	C358.180664,279.877899 358.180664,279.877899 357.733215,291.252380 
z"/>
<path fill="#656565" opacity="1.000000" stroke="none" 
	d="
M104.914703,278.908508 
	C106.303413,278.904419 107.269920,278.904419 108.236435,278.904419 
	C108.263336,279.152893 108.290237,279.401398 108.317131,279.649872 
	C106.718468,279.874603 105.119804,280.099335 103.250641,280.362122 
	C103.250641,285.047485 103.250641,289.750183 103.250641,294.466705 
	C100.985535,294.573456 100.955818,294.574188 100.812363,288.644806 
	C100.740517,285.675079 100.799850,282.702209 100.799850,279.208252 
	C101.754066,279.131836 103.123283,279.022217 104.914703,278.908508 
z"/>
<path fill="#565656" opacity="1.000000" stroke="none" 
	d="
M373.221008,285.762451 
	C374.555359,285.981110 375.514343,286.067413 376.473297,286.153748 
	C376.476898,286.320374 376.480499,286.487000 376.484100,286.653625 
	C375.237579,286.861877 373.991058,287.070160 372.630157,287.297516 
	C372.335693,289.202179 372.045532,291.078857 371.755371,292.955505 
	C371.380096,292.947449 371.004791,292.939362 370.629517,292.931274 
	C370.629517,288.429413 370.629517,283.927551 370.629517,279.188141 
	C372.791687,279.188141 375.142395,279.188141 377.493103,279.188141 
	C377.505798,279.377869 377.518524,279.567596 377.531219,279.757355 
	C375.953186,279.917419 374.375153,280.077484 372.243805,280.293671 
	C372.458221,282.194855 372.651917,283.912506 373.221008,285.762451 
z"/>
<path fill="#565656" opacity="1.000000" stroke="none" 
	d="
M310.914581,292.849792 
	C310.248871,288.387512 310.031219,283.967468 309.798553,279.242371 
	C312.727020,279.242371 315.130371,279.242371 317.533722,279.242371 
	C317.553925,279.368439 317.574097,279.494507 317.594269,279.620575 
	C316.041901,279.838104 314.489532,280.055634 312.534088,280.329651 
	C312.435059,281.849487 312.331299,283.442047 312.207520,285.342102 
	C313.743164,285.712677 315.103760,286.041046 317.182983,286.542816 
	C315.239380,286.863129 313.996490,287.067963 312.793671,287.266205 
	C312.303925,289.191559 311.833282,291.041809 310.914581,292.849792 
z"/>
<path fill="#656565" opacity="1.000000" stroke="none" 
	d="
M146.033096,288.800537 
	C146.033325,285.404877 146.033325,282.463318 146.033325,279.502228 
	C147.785294,279.421997 147.785294,279.421997 148.134598,293.162537 
	C149.547638,293.489410 151.044632,293.835724 152.541626,294.182007 
	C152.534363,294.348389 152.527100,294.514740 152.519836,294.681091 
	C150.354553,294.681091 148.189285,294.681091 145.745987,294.681091 
	C145.836487,292.969360 145.934677,291.112000 146.033096,288.800537 
z"/>
<path fill="#6F6F6F" opacity="1.000000" stroke="none" 
	d="
M175.733795,285.272888 
	C182.134125,288.841766 182.134125,288.841766 180.192230,291.848358 
	C178.524490,290.426270 176.711990,289.100830 175.179947,287.505981 
	C173.910004,286.183990 172.970642,284.544464 171.884842,283.045593 
	C172.364075,282.747742 172.843307,282.449860 173.322540,282.152008 
	C174.032135,283.115265 174.741745,284.078522 175.733795,285.272888 
z"/>
<path fill="#6A6A6A" opacity="1.000000" stroke="none" 
	d="
M266.382202,279.940857 
	C266.027588,279.843658 266.018524,279.499939 266.023071,279.328094 
	C268.574615,280.259338 272.191132,280.708740 273.374664,282.645172 
	C274.615295,284.674957 273.521332,288.131622 272.527039,291.019012 
	C272.560974,286.123016 272.566498,281.649841 266.382202,279.940857 
z"/>
<path fill="#6A6A6A" opacity="1.000000" stroke="none" 
	d="
M239.047775,288.486664 
	C238.931564,287.656738 238.938171,287.135132 238.938782,286.222260 
	C242.015533,288.572144 245.098282,291.313324 248.598770,294.425934 
	C243.542267,295.592865 241.803848,291.343140 239.047775,288.486664 
z"/>
<path fill="#6A6A6A" opacity="1.000000" stroke="none" 
	d="
M390.757812,288.185364 
	C392.782349,290.316193 394.556976,292.194885 396.316101,294.057129 
	C393.280487,294.759857 392.079254,293.850464 386.922546,286.516937 
	C388.658691,287.202759 389.583282,287.567993 390.757812,288.185364 
z"/>
<path fill="#EDDEE1" opacity="1.000000" stroke="none" 
	d="
M312.004486,325.993866 
	C311.774109,325.673523 311.543762,325.353180 311.313385,325.032837 
	C311.427551,324.958160 311.541718,324.883514 311.655884,324.808868 
	C311.763794,325.060364 311.871674,325.311829 311.989777,325.781677 
	C312.000000,326.000000 312.004486,325.993866 312.004486,325.993866 
z"/>
<path fill="#EDDEE1" opacity="1.000000" stroke="none" 
	d="
M311.996674,326.002441 
	C312.314850,326.103149 312.578278,326.285339 312.900085,326.764832 
	C313.016602,326.978149 313.000183,326.999054 312.989594,327.007507 
	C312.668976,326.894165 312.418793,326.696594 312.116455,326.208557 
	C312.004486,325.993866 312.000000,326.000000 311.996674,326.002441 
z"/>
<path fill="#777777" opacity="1.000000" stroke="none" 
	d="
M345.105713,293.664673 
	C344.906555,293.536987 344.928925,293.495850 344.945190,293.479004 
	C345.100952,293.392487 345.250488,293.254028 345.377075,293.272522 
	C345.502899,293.290924 345.605591,293.467072 345.718445,293.574066 
	C345.580566,293.646820 345.442719,293.719604 345.105713,293.664673 
z"/>
<path fill="#565656" opacity="1.000000" stroke="none" 
	d="
M388.740570,383.742371 
	C388.939606,383.471375 389.289001,383.350342 389.638367,383.229309 
	C389.652924,383.474426 389.667480,383.719574 389.438049,384.077271 
	C389.194061,384.189819 388.890930,383.892365 388.740570,383.742371 
z"/>
<path fill="#777777" opacity="1.000000" stroke="none" 
	d="
M348.291809,291.299561 
	C348.102997,291.606354 347.771271,291.767609 347.439514,291.928864 
	C347.426239,291.673798 347.412994,291.418732 347.627777,291.016968 
	C347.855835,290.870239 348.148865,291.154053 348.291809,291.299561 
z"/>
</svg>